<svg width="16" height="16" viewBox="0 0 16 16" fill="none" xmlns="http://www.w3.org/2000/svg">
<path fill-rule="evenodd" clip-rule="evenodd" d="M7.94399 9.53474C8.82047 9.53474 9.53503 8.82146 9.53503 7.94434C9.53503 7.5981 9.42175 7.27842 9.23423 7.0173C8.94527 6.61666 8.47551 6.35394 7.94495 6.35394C7.41407 6.35394 6.94463 6.61634 6.65503 7.01698C6.46687 7.2781 6.35455 7.59778 6.35423 7.94402C6.35327 8.82114 7.06719 9.53474 7.94399 9.53474Z" fill="#D3D3D3"/>
<path fill-rule="evenodd" clip-rule="evenodd" d="M11.417 5.99874V4.66562V4.46722L11.2176 4.46786L9.88512 4.47202L9.89024 6.00386L11.417 5.99874Z" fill="#D3D3D3"/>
<path fill-rule="evenodd" clip-rule="evenodd" d="M7.94432 0C3.56384 0 0 3.56384 0 7.94432C0 12.3245 3.56384 15.8886 7.94432 15.8886C12.3245 15.8886 15.8886 12.3245 15.8886 7.94432C15.8886 3.56384 12.3251 0 7.94432 0ZM12.4624 7.01728V10.7165C12.4624 11.68 11.679 12.463 10.7162 12.463H5.17248C4.20928 12.463 3.42624 11.68 3.42624 10.7165V7.01728V5.1728C3.42624 4.2096 4.20928 3.42656 5.17248 3.42656H10.7158C11.679 3.42656 12.4624 4.2096 12.4624 5.1728V7.01728Z" fill="#D3D3D3"/>
<path fill-rule="evenodd" clip-rule="evenodd" d="M10.4157 7.94431C10.4157 9.30655 9.3072 10.4157 7.94432 10.4157C6.58144 10.4157 5.47328 9.30655 5.47328 7.94431C5.47328 7.61663 5.53856 7.30335 5.65504 7.01727H4.30624V10.7165C4.30624 11.1946 4.6944 11.5818 5.17216 11.5818H10.7155C11.1926 11.5818 11.5814 11.1946 11.5814 10.7165V7.01727H10.232C10.3494 7.30335 10.4157 7.61663 10.4157 7.94431Z" fill="#D3D3D3"/>
</svg>
